<svg width="24" height="34" viewBox="0 0 24 34" fill="none" xmlns="http://www.w3.org/2000/svg">
<path d="M17 33.6667H7.00004V30.3333H17V33.6667ZM17 28.6667H7.00004L6.62837 25.3333C6.42841 24.2308 6.09775 23.156 5.64337 22.1317C5.05337 21.2983 4.43837 20.5867 3.84337 19.8917C2.7611 18.8772 1.89294 17.6563 1.2901 16.3009C0.687266 14.9455 0.36196 13.4831 0.333374 12C0.333374 8.9058 1.56254 5.93834 3.75046 3.75042C5.93839 1.56249 8.90585 0.333328 12 0.333328C15.0942 0.333328 18.0617 1.56249 20.2496 3.75042C22.4375 5.93834 23.6667 8.9058 23.6667 12C23.6331 13.4744 23.3076 14.9274 22.7088 16.2751C22.11 17.6229 21.25 18.8385 20.1784 19.8517L20.15 19.885C19.5191 20.6023 18.9234 21.3498 18.365 22.125C17.9111 23.152 17.5793 24.2289 17.3767 25.3333L17 28.6667ZM12 3.66666C9.79072 3.66931 7.67264 4.54813 6.11041 6.11036C4.54818 7.67259 3.66935 9.79067 3.66671 12C3.66671 14.5733 4.74004 15.8217 6.36337 17.7133C6.98004 18.4333 7.68004 19.2467 8.36337 20.1983C9.19269 21.8097 9.75927 23.5432 10.0417 25.3333H13.96C14.2498 23.5484 14.8154 21.8194 15.6367 20.2083C16.3034 19.2567 17.0017 18.4383 17.6167 17.7183L17.6417 17.6883C19.2617 15.7883 20.3334 14.5333 20.3334 12C20.3307 9.79067 19.4519 7.67259 17.8897 6.11036C16.3274 4.54813 14.2094 3.66931 12 3.66666V3.66666Z"/>
</svg>
