<svg width="34" height="32" viewBox="0 0 34 32" fill="none" xmlns="http://www.w3.org/2000/svg">
<path d="M28.6667 31.6667H5.33337C4.89135 31.6667 4.46742 31.4911 4.15486 31.1785C3.8423 30.866 3.66671 30.442 3.66671 30V16.6667H0.333374L15.82 1.17834C15.9748 1.02338 16.1586 0.900448 16.361 0.816574C16.5633 0.7327 16.7802 0.689529 16.9992 0.689529C17.2182 0.689529 17.4351 0.7327 17.6374 0.816574C17.8398 0.900448 18.0236 1.02338 18.1784 1.17834L33.6667 16.6667H30.3334V30C30.3334 30.442 30.1578 30.866 29.8452 31.1785C29.5327 31.4911 29.1087 31.6667 28.6667 31.6667ZM13.6667 20H20.3334V28.3333H27V14.7133L17 4.71334L7.00004 14.7133V28.3333H13.6667V20Z"/>
</svg>
